<?xml version="1.0" standalone="no"?><!DOCTYPE svg PUBLIC "-//W3C//DTD SVG 1.1//EN" "http://www.w3.org/Graphics/SVG/1.1/DTD/svg11.dtd"><svg class="icon" width="200px" height="200.00px" viewBox="0 0 1024 1024" version="1.1" xmlns="http://www.w3.org/2000/svg"><path d="M513 111.5c-221.9 0-401.7 179.9-401.7 401.7 0 221.9 179.8 401.7 401.7 401.7 221.9 0 401.7-179.8 401.7-401.7 0-221.8-179.9-401.7-401.7-401.7z m0 744.4c-188.9 0-342.6-153.7-342.6-342.6 0-189 153.7-342.7 342.6-342.7 189 0 342.7 153.7 342.7 342.7 0 188.9-153.7 342.6-342.7 342.6z" fill="#ffffff" /><path d="M698.3 434.9l-105.3-16-47.3-100.5c-5.9-12.9-19.7-21.2-32.7-20.8-13-0.3-26.9 7.9-32.7 20.8l-47.4 100.5-105.3 16c-19.8 3.2-31.1 20.5-30.8 36.2-0.1 8.7 3.4 18.5 10.5 25.7l77 78.6-18.2 111.4c-0.4 1.9-0.5 3.9-0.5 6 0.2 20.1 15.7 36.3 36.2 36.5 5.9 0 12.1-1.6 17.3-4.4l0.5-0.3 93.5-51.5 93.8 51.7c5.2 2.9 11.4 4.5 17.3 4.5 20.6-0.3 36-16.4 36.2-36.5 0-2-0.2-4-0.5-6l-18.2-111.3 77-78.6c7.1-7.2 10.5-16.9 10.5-25.7 0.3-15.8-11-33-30.9-36.3zM390.8 673zM513 612.6c-8.2 0-16.3 2-23.7 6.1l-0.9 0.5-56.6 31.2 11.3-69.3c0.5-2.8 0.7-5.5 0.7-8.3 0-13.1-5-25.9-14.5-35.7L380 486.7l66.8-10.2c16.7-2.6 30.5-13.4 37.4-28.1l0.3-0.6 28.4-60.3 28.7 60.8v0.1c6.9 14.7 20.7 25.6 37.4 28.1l66.8 10.2-49.1 50.3c-9.5 9.7-14.5 22.6-14.5 35.7 0 2.8 0.2 5.6 0.7 8.3l11.3 69.3-57.6-31.7 0.1 0.1c-7.3-4.1-15.5-6.1-23.7-6.1z" fill="#ffffff" /></svg>